<?xml version="1.0" encoding="UTF-8" standalone="no"?>
<!DOCTYPE svg PUBLIC "-//W3C//DTD SVG 1.1//EN" "http://www.w3.org/Graphics/SVG/1.1/DTD/svg11.dtd">
<svg width="100%" height="100%" viewBox="0 0 24 24" version="1.1" xmlns="http://www.w3.org/2000/svg" xmlns:xlink="http://www.w3.org/1999/xlink" xml:space="preserve" xmlns:serif="http://www.serif.com/" style="fill-rule:evenodd;clip-rule:evenodd;stroke-linejoin:round;stroke-miterlimit:2;">
    <g transform="matrix(1.5,0,0,1.5,-3,1.5)">
        <path d="M2.5,-1L16.5,-1L17,-0.5L17,13L16,13L16,0L3,0L3,13L2,13L2,-0.5L2.5,-1ZM2,15L2,14L3,14L3,15L2,15ZM5,14L5,15L4,15L4,14L5,14ZM6,14L7,14L7,15L6,15L6,14ZM9,14L9,15L8,15L8,14L9,14ZM10,14L11,14L11,15L10,15L10,14ZM15,15L14,15L14,14L15,14L15,15ZM12,14L13,14L13,15L12,15L12,14ZM17,15L16,15L16,14L17,14L17,15Z"/>
    </g>
</svg>
